<svg width="512" height="512" viewBox="0 0 512 512" xmlns="http://www.w3.org/2000/svg">
  <defs>
    <radialGradient id="bgGradient" cx="35%" cy="30%" r="75%">
      <stop offset="0%" stop-color="#4C7CFF"/>
      <stop offset="100%" stop-color="#8FB3FF"/>
    </radialGradient>
    <filter id="chipShadow" x="-20%" y="-20%" width="140%" height="160%">
      <feDropShadow dx="0" dy="12" stdDeviation="18" flood-color="#2D3F89" flood-opacity="0.18"/>
    </filter>
    <filter id="bubbleShadow" x="-20%" y="-20%" width="140%" height="140%">
      <feDropShadow dx="0" dy="10" stdDeviation="14" flood-color="#2740A9" flood-opacity="0.16"/>
    </filter>
    <radialGradient id="glowGradient" cx="50%" cy="50%" r="50%">
      <stop offset="0%" stop-color="#94B5FF" stop-opacity="0.6"/>
      <stop offset="100%" stop-color="#94B5FF" stop-opacity="0"/>
    </radialGradient>
    <linearGradient id="bubbleHighlight" x1="0%" y1="0%" x2="0%" y2="100%">
      <stop offset="0%" stop-color="#FFFFFF" stop-opacity="0.95"/>
      <stop offset="100%" stop-color="#DEE8FF" stop-opacity="0.95"/>
    </linearGradient>
  </defs>
  <circle cx="256" cy="256" r="244" fill="url(#bgGradient)"/>
  <circle cx="256" cy="256" r="244" fill="url(#glowGradient)" opacity="0.3"/>
  <circle cx="256" cy="256" r="230" fill="none" stroke="#E1EBFF" stroke-width="12" stroke-opacity="0.6"/>
  <g fill="#FFFFFF" opacity="0.45">
    <circle cx="118" cy="156" r="6"/>
    <circle cx="380" cy="132" r="5"/>
    <circle cx="420" cy="310" r="7"/>
    <circle cx="132" cy="340" r="5"/>
    <circle cx="266" cy="420" r="4"/>
    <circle cx="210" cy="110" r="4"/>
    <circle cx="336" cy="400" r="4"/>
  </g>
  <rect x="156" y="160" width="200" height="180" rx="48" fill="#FFFFFF" filter="url(#chipShadow)"/>
  <g stroke="#5D7AFF" stroke-width="4" stroke-opacity="0.8" stroke-linecap="round">
    <line x1="190" y1="210" x2="322" y2="210"/>
    <line x1="190" y1="250" x2="322" y2="250"/>
    <line x1="190" y1="290" x2="322" y2="290"/>
  </g>
  <g fill="#4064E8" fill-opacity="0.7">
    <circle cx="210" cy="210" r="6"/>
    <circle cx="256" cy="210" r="6"/>
    <circle cx="302" cy="210" r="6"/>
    <circle cx="230" cy="250" r="6"/>
    <circle cx="276" cy="250" r="6"/>
    <circle cx="322" cy="250" r="6"/>
    <circle cx="210" cy="290" r="6"/>
    <circle cx="256" cy="290" r="6"/>
    <circle cx="302" cy="290" r="6"/>
  </g>
  <g stroke="#5D7AFF" stroke-width="5" stroke-linecap="round" stroke-opacity="0.7">
    <line x1="356" y1="230" x2="392" y2="210"/>
    <line x1="356" y1="270" x2="398" y2="290"/>
    <line x1="156" y1="230" x2="120" y2="205"/>
    <line x1="156" y1="270" x2="118" y2="295"/>
  </g>
  <g fill="#4064E8" fill-opacity="0.8">
    <circle cx="392" cy="210" r="8"/>
    <circle cx="398" cy="290" r="8"/>
    <circle cx="120" cy="205" r="8"/>
    <circle cx="118" cy="295" r="8"/>
  </g>
  <g filter="url(#bubbleShadow)">
    <path d="M360 330c0 45.3-36.7 82-82 82h-36l-40 28 16-44c-32-11-54-40.5-54-73.3 0-43.8 34.8-79.7 78.6-79.7h37C325.2 243 360 286.2 360 330Z" fill="url(#bubbleHighlight)"/>
  </g>
  <text x="256" y="340" text-anchor="middle" font-family="Poppins, 'Segoe UI', sans-serif" font-size="96" font-weight="600" fill="#2942A8">XK</text>
</svg>
